<svg xmlns="http://www.w3.org/2000/svg" xmlns:xlink="http://www.w3.org/1999/xlink">
	<symbol viewBox="0 0 21 20" id="download">
		<path d="M16.9532 5.2853C16.2442 1.72791 12.7856 -0.581059 9.22824 0.127953C6.62634 0.646539 4.59187 2.67972 4.07168 5.2813C1.54938 5.57198 -0.259901 7.85229 0.0306226 10.3747C0.298084 12.6962 2.26432 14.4477 4.60116 14.4461H7.88501C8.24776 14.4461 8.54181 14.152 8.54181 13.7893C8.54181 13.4265 8.24776 13.1325 7.88501 13.1325H4.60116C2.78739 13.1217 1.32597 11.6429 1.33654 9.82926C1.34727 8.01549 2.82615 6.5539 4.63992 6.56463C4.97465 6.56463 5.25588 6.31287 5.29272 5.98006C5.62616 3.09757 8.23335 1.03107 11.116 1.36452C13.5395 1.64479 15.4513 3.55658 15.7315 5.98006C15.7866 6.31879 16.08 6.56687 16.4231 6.56463C18.2369 6.56463 19.7071 8.03487 19.7071 9.84864C19.7071 11.6622 18.2369 13.1325 16.4231 13.1325H13.1393C12.7765 13.1325 12.4825 13.4265 12.4825 13.7893C12.4825 14.152 12.7765 14.4461 13.1393 14.4461H16.4233C18.9622 14.4302 21.0077 12.3591 20.992 9.82013C20.9776 7.50795 19.2483 5.56622 16.9532 5.2853Z" fill="#FF0043"/>
		<path d="M12.8337 15.7925L11.1687 17.458V9.19183C11.1687 8.82908 10.8747 8.53503 10.5121 8.53503C10.1493 8.53503 9.85526 8.82908 9.85526 9.19183V17.458L8.19028 15.7925C7.93835 15.5315 7.52243 15.5243 7.26153 15.7763C7.00064 16.0283 6.99343 16.444 7.24535 16.7049C7.2508 16.7105 7.25609 16.7158 7.26153 16.7211L10.047 19.5072C10.1078 19.5679 10.1799 19.6161 10.2592 19.6491C10.4208 19.7175 10.6032 19.7175 10.7649 19.6491C10.8442 19.6161 10.9163 19.5679 10.977 19.5072L13.7624 16.7211C14.0233 16.4692 14.0305 16.0534 13.7786 15.7925C13.5265 15.5316 13.1108 15.5244 12.8499 15.7763C12.8444 15.7816 12.839 15.7869 12.8337 15.7925Z" fill="#FF0043"/>
	</symbol>

	<symbol viewBox="0 0 40 48" id="android">
			<path d="M3.06202 15.9801C1.40841 15.9801 0.0678711 17.3206 0.0678711 18.9743V32.9469C0.0678711 34.6005 1.40841 35.9411 3.06202 35.9411C4.71564 35.9411 6.05618 34.6005 6.05618 32.9469V18.9743C6.05618 17.3206 4.71564 15.9801 3.06202 15.9801Z" fill="#FF0043"/>
			<path d="M36.9956 15.9801C35.342 15.9801 34.0015 17.3206 34.0015 18.9743V32.9469C34.0015 34.6005 35.342 35.9411 36.9956 35.9411C38.6492 35.9411 39.9898 34.6005 39.9898 32.9469V18.9743C39.9898 17.3206 38.6493 15.9801 36.9956 15.9801Z" fill="#FF0043"/>
			<path d="M31.0074 15.9801H9.05033C8.49912 15.9801 8.05225 16.427 8.05225 16.9782V32.9469C8.05178 35.3187 9.72064 37.363 12.0445 37.8374V44.9235C12.0445 46.5772 13.385 47.9177 15.0386 47.9177C16.6922 47.9177 18.0328 46.5772 18.0328 44.9235V37.9372H22.025V44.9235C22.025 46.5772 23.3656 47.9177 25.0192 47.9177C26.6728 47.9177 28.0133 46.5772 28.0133 44.9235V37.8374C30.3372 37.363 32.006 35.3187 32.0056 32.9469V16.9782C32.0055 16.427 31.5586 15.9801 31.0074 15.9801Z" fill="#FF0043"/>
			<path d="M27.2849 4.14718L29.7181 1.71593C30.1145 1.33296 30.1255 0.701192 29.7426 0.304654C29.3596 -0.0917903 28.7278 -0.102738 28.3313 0.28014C28.323 0.288186 28.3148 0.296327 28.3068 0.304654L25.4724 3.13918C22.0008 1.63116 18.0591 1.63116 14.5876 3.13918L11.7532 0.302689C11.3567 -0.0802815 10.7249 -0.0692405 10.3419 0.327204C9.96836 0.714011 9.96836 1.32716 10.3419 1.71387L12.7731 4.14709C9.80921 6.10826 8.03405 9.43186 8.05239 12.9858C8.05239 13.537 8.49926 13.9839 9.05047 13.9839H31.0076C31.5588 13.9839 32.0057 13.537 32.0057 12.9858C32.0239 9.43195 30.2488 6.10835 27.2849 4.14718Z" fill="#FF0043"/>
			<circle cx="15.0386" cy="8.99369" r="0.998082" fill="#FAFAFA"/>
			<circle cx="25.0191" cy="8.99369" r="0.998082" fill="#FAFAFA"/>
	</symbol>

	<symbol viewBox="0 0 40 48" id="apple">
		<path fill-rule="evenodd" clip-rule="evenodd" d="M22.8722 10.468C21.9428 10.8373 20.9775 11.0307 19.9735 11.004C19.7828 11.0013 19.7095 10.9507 19.6988 10.7493C19.5428 8.84933 20.0522 7.11067 20.9682 5.47333C22.5335 2.67733 24.9148 0.950667 28.0095 0.192C28.2742 0.125348 28.5467 0.0901898 28.8345 0.053057C28.9612 0.0367065 29.0909 0.0199732 29.2242 0C29.2289 0.127214 29.2347 0.247475 29.2404 0.363546C29.2489 0.539445 29.2569 0.705722 29.2602 0.872C29.3268 4.30133 27.1108 8.78533 22.8722 10.468ZM38.913 35.3626C38.9623 35.2177 39.011 35.0749 39.0602 34.936C35.3135 33.072 33.0282 30.2 32.7442 25.9547C32.4628 21.712 34.4002 18.5787 37.8028 16.2067C37.7793 16.1702 37.7455 16.1214 37.7131 16.0747L37.7002 16.056C36.3508 14.1627 34.5642 12.8627 32.3682 12.128C30.8188 11.6093 29.2268 11.3973 27.5948 11.5293C26.5042 11.616 25.4588 11.9227 24.4308 12.2973C23.4282 12.6693 22.4282 13.0493 21.4295 13.4307C20.5268 13.776 19.6295 13.776 18.7282 13.4373C17.7495 13.0707 16.7722 12.7013 15.7975 12.328C13.9455 11.6147 12.0562 11.428 10.1135 11.8853C6.88415 12.6413 4.42949 14.4747 2.68949 17.2733C1.30282 19.5 0.700152 21.9707 0.546819 24.5653C0.416152 26.7293 0.629486 28.864 1.07482 30.9813C2.10815 35.9053 4.24815 40.3013 7.43615 44.1893C8.10949 45.008 8.82949 45.7813 9.68682 46.416C10.3775 46.9267 11.1215 47.3227 11.9722 47.4813C12.9468 47.6653 13.9042 47.54 14.8268 47.2307C15.3817 47.0438 15.9243 46.8214 16.4668 46.5989C16.7025 46.5023 16.9382 46.4057 17.1748 46.312C19.3415 45.456 21.5322 45.3507 23.7348 46.1507C24.1744 46.3104 24.6056 46.4948 25.0367 46.6792C25.2712 46.7794 25.5057 46.8797 25.7415 46.976C26.6655 47.352 27.6242 47.5333 28.6228 47.5013C29.9522 47.4547 31.1015 46.944 32.1002 46.0987C32.6055 45.6733 33.0948 45.2147 33.5148 44.708C35.6908 42.1053 37.4842 39.2653 38.6655 36.0667C38.7533 35.8319 38.8341 35.5946 38.913 35.3626Z" fill="#FF0043"/>
	</symbol>

	<symbol viewBox="0 0 43 43" id="mac">
		<path d="M43 6.72583V36.2883C43 37.0408 42.4088 37.6321 41.6562 37.6321H24.3756C23.865 32.8483 24.3219 25.404 25.5312 22.8508C25.5312 22.8508 19.995 22.8508 17.4688 22.8508C17.4688 17.234 20.0756 10.0852 22.7094 5.38208H41.6562C42.4088 5.38208 43 5.97333 43 6.72583Z" fill="#FFE7ED"/>
		<path d="M24.3756 37.6321H1.34375C0.59125 37.6321 0 37.0408 0 36.2883V6.72583C0 5.97333 0.59125 5.38208 1.34375 5.38208H22.7094C20.0756 10.0852 17.4688 17.234 17.4688 22.8508C19.995 22.8508 25.5312 22.8508 25.5312 22.8508C24.3219 25.404 23.865 32.8483 24.3756 37.6321Z" fill="#FFE7ED"/>
		<path d="M25.4963 42.9936C25.1657 42.9936 24.8379 42.87 24.5799 42.612C22.3331 40.3652 22.4299 29.4889 23.693 24.1945H17.4688C16.727 24.1945 16.125 23.5925 16.125 22.8508C16.125 14.7318 21.1748 3.80714 24.5799 0.399395C25.1039 -0.124668 25.9559 -0.124668 26.4799 0.399395C27.004 0.923457 27.004 1.77539 26.4799 2.29946C23.9429 4.83914 19.3822 14.1137 18.8609 21.507H25.5312C25.9908 21.507 26.4181 21.7408 26.6654 22.1278C26.9126 22.5175 26.9449 23.004 26.7487 23.4178C25.1013 26.9411 25.1658 39.2526 26.4826 40.7146C26.9718 41.2548 26.961 42.1121 26.4316 42.612C26.1682 42.8646 25.8296 42.9936 25.4963 42.9936Z" fill="#FF0043"/>
		<path d="M21.4999 32.2571C18.9414 32.2571 14.2947 31.5288 8.92781 29.4809C8.23443 29.2175 7.88774 28.4408 8.15112 27.7475C8.41449 27.0514 9.19118 26.6993 9.88724 26.9708C14.9182 28.8896 19.2881 29.5696 21.4999 29.5696C23.7117 29.5696 28.0816 28.8896 33.1153 26.9708C33.8033 26.702 34.5854 27.0487 34.8487 27.7475C35.1148 28.4408 34.7681 29.2175 34.0721 29.4809C28.7051 31.5288 24.0584 32.2571 21.4999 32.2571Z" fill="#FF0043"/>
		<path d="M12.0938 16.1321C11.352 16.1321 10.75 15.5301 10.75 14.7883V12.1008C10.75 11.3591 11.352 10.7571 12.0938 10.7571C12.8355 10.7571 13.4375 11.3591 13.4375 12.1008V14.7883C13.4375 15.5301 12.8355 16.1321 12.0938 16.1321Z" fill="#FF0043"/>
		<path d="M28.2188 16.1321C27.477 16.1321 26.875 15.5301 26.875 14.7883V12.1008C26.875 11.3591 27.477 10.7571 28.2188 10.7571C28.9605 10.7571 29.5625 11.3591 29.5625 12.1008V14.7883C29.5625 15.5301 28.9605 16.1321 28.2188 16.1321Z" fill="#FF0043"/>
	</symbol>

	<symbol viewBox="0 0 42 39" id="windows">
		<path d="M18.5532 18.4283V3.6261L0.916504 5.83069V18.4283H18.5532Z" fill="#FF0043"/>
		<path d="M21.0728 18.4283H41.229V0.791626L21.0728 3.31116V18.4283Z" fill="#FF0043"/>
		<path d="M21.0728 20.9479V36.0651L41.229 38.5846V20.9479H21.0728Z" fill="#FF0043"/>
		<path d="M18.5532 20.9479H0.916504V33.5455L18.5532 35.7501V20.9479Z" fill="#FF0043"/>
	</symbol>
</svg>